<svg width="48" height="48" viewBox="0 0 48 48" fill="none" xmlns="http://www.w3.org/2000/svg">
<path d="M29.5939 30.1097L33.9464 25.8784C34.1916 25.64 34.4776 25.5258 34.8046 25.5358C35.1315 25.5457 35.4176 25.6698 35.6628 25.9082C35.8876 26.1466 36 26.4247 36 26.7426C36 27.0604 35.8876 27.3385 35.6628 27.5769L30.4828 32.6424C30.2375 32.8808 29.9515 33 29.6245 33C29.2976 33 29.0115 32.8808 28.7663 32.6424L26.1303 30.0799C25.9055 29.8613 25.7931 29.5832 25.7931 29.2455C25.7931 28.9078 25.9055 28.6297 26.1303 28.4112C26.355 28.1927 26.6411 28.0834 26.9885 28.0834C27.3359 28.0834 27.622 28.1927 27.8467 28.4112L29.5939 30.1097ZM29.5939 20.5745L33.9464 16.3433C34.1916 16.1049 34.4776 15.9907 34.8046 16.0006C35.1315 16.0105 35.4176 16.1347 35.6628 16.3731C35.8876 16.6114 36 16.8896 36 17.2074C36 17.5252 35.8876 17.8033 35.6628 18.0417L30.4828 23.1073C30.2375 23.3457 29.9515 23.4648 29.6245 23.4648C29.2976 23.4648 29.0115 23.3457 28.7663 23.1073L26.1303 20.5447C25.9055 20.3262 25.7931 20.0481 25.7931 19.7104C25.7931 19.3727 25.9055 19.0946 26.1303 18.876C26.355 18.6575 26.6411 18.5483 26.9885 18.5483C27.3359 18.5483 27.622 18.6575 27.8467 18.876L29.5939 20.5745ZM13.2261 31.093C12.8787 31.093 12.5875 30.9787 12.3525 30.7503C12.1175 30.5219 12 30.2388 12 29.9011C12 29.5634 12.1175 29.2803 12.3525 29.0518C12.5875 28.8234 12.8787 28.7092 13.2261 28.7092H21.8084C22.1558 28.7092 22.447 28.8234 22.682 29.0518C22.917 29.2803 23.0345 29.5634 23.0345 29.9011C23.0345 30.2388 22.917 30.5219 22.682 30.7503C22.447 30.9787 22.1558 31.093 21.8084 31.093H13.2261ZM13.2261 21.5578C12.8787 21.5578 12.5875 21.4436 12.3525 21.2151C12.1175 20.9867 12 20.7036 12 20.3659C12 20.0282 12.1175 19.7451 12.3525 19.5167C12.5875 19.2882 12.8787 19.174 13.2261 19.174H21.8084C22.1558 19.174 22.447 19.2882 22.682 19.5167C22.917 19.7451 23.0345 20.0282 23.0345 20.3659C23.0345 20.7036 22.917 20.9867 22.682 21.2151C22.447 21.4436 22.1558 21.5578 21.8084 21.5578H13.2261Z" fill="black"/>
</svg>
