<svg width="48" height="48" viewBox="0 0 48 48" fill="none" xmlns="http://www.w3.org/2000/svg">
<path d="M23.9918 20.6507L14.6895 30.4976C14.3731 30.8325 14.0039 30.9944 13.582 30.9833C13.1602 30.9721 12.791 30.799 12.4746 30.4641C12.1582 30.1292 12 29.7384 12 29.2919C12 28.8453 12.1582 28.4545 12.4746 28.1196L22.1883 17.8038C22.4414 17.5359 22.7262 17.3349 23.0426 17.201C23.359 17.067 23.6754 17 23.9918 17C24.3082 17 24.6246 17.067 24.9411 17.201C25.2575 17.3349 25.5422 17.5359 25.7954 17.8038L35.5407 28.1196C35.8571 28.4545 36.01 28.8509 35.9995 29.3086C35.9889 29.7663 35.8255 30.1627 35.5091 30.4976C35.1927 30.8325 34.8235 31 34.4016 31C33.9798 31 33.6106 30.8325 33.2942 30.4976L23.9918 20.6507Z" fill="black"/>
</svg>
