<svg width="48" height="48" viewBox="0 0 48 48" fill="none" xmlns="http://www.w3.org/2000/svg">
<path d="M15.3859 36.23C14.7136 36.23 14.1382 35.995 13.6595 35.525C13.1808 35.055 12.9414 34.49 12.9414 33.83V17.03C12.9414 16.37 13.1808 15.805 13.6595 15.335C14.1382 14.865 14.7136 14.63 15.3859 14.63H16.6081V13.43C16.6081 13.09 16.7252 12.805 16.9595 12.575C17.1937 12.345 17.484 12.23 17.8303 12.23C18.1766 12.23 18.4669 12.345 18.7011 12.575C18.9354 12.805 19.0525 13.09 19.0525 13.43V14.63H28.8303V13.43C28.8303 13.09 28.9474 12.805 29.1817 12.575C29.4159 12.345 29.7062 12.23 30.0525 12.23C30.3988 12.23 30.6891 12.345 30.9234 12.575C31.1576 12.805 31.2747 13.09 31.2747 13.43V14.63H32.497C33.1692 14.63 33.7446 14.865 34.2234 15.335C34.7021 15.805 34.9414 16.37 34.9414 17.03V33.83C34.9414 34.49 34.7021 35.055 34.2234 35.525C33.7446 35.995 33.1692 36.23 32.497 36.23H15.3859ZM15.3859 33.83H32.497V21.83H15.3859V33.83ZM15.3859 19.43H32.497V17.03H15.3859V19.43ZM19.0525 26.63C18.7062 26.63 18.4159 26.515 18.1817 26.285C17.9474 26.055 17.8303 25.77 17.8303 25.43C17.8303 25.09 17.9474 24.805 18.1817 24.575C18.4159 24.345 18.7062 24.23 19.0525 24.23H28.8303C29.1766 24.23 29.4669 24.345 29.7011 24.575C29.9354 24.805 30.0525 25.09 30.0525 25.43C30.0525 25.77 29.9354 26.055 29.7011 26.285C29.4669 26.515 29.1766 26.63 28.8303 26.63H19.0525ZM19.0525 31.43C18.7062 31.43 18.4159 31.315 18.1817 31.085C17.9474 30.855 17.8303 30.57 17.8303 30.23C17.8303 29.89 17.9474 29.605 18.1817 29.375C18.4159 29.145 18.7062 29.03 19.0525 29.03H25.1636C25.5099 29.03 25.8002 29.145 26.0345 29.375C26.2687 29.605 26.3859 29.89 26.3859 30.23C26.3859 30.57 26.2687 30.855 26.0345 31.085C25.8002 31.315 25.5099 31.43 25.1636 31.43H19.0525Z" fill="black"/>
</svg>
