<svg width="48" height="48" viewBox="0 0 48 48" fill="none" xmlns="http://www.w3.org/2000/svg">
<path d="M24 34C23.72 34 23.435 33.9505 23.145 33.8515C22.855 33.7525 22.6 33.5941 22.38 33.3762L20.31 31.505C18.19 29.5842 16.275 27.6782 14.565 25.7871C12.855 23.896 12 21.8119 12 19.5347C12 17.6733 12.63 16.1188 13.89 14.8713C15.15 13.6238 16.72 13 18.6 13C19.66 13 20.66 13.2228 21.6 13.6683C22.54 14.1139 23.34 14.7228 24 15.495C24.66 14.7228 25.46 14.1139 26.4 13.6683C27.34 13.2228 28.34 13 29.4 13C31.28 13 32.85 13.6238 34.11 14.8713C35.37 16.1188 36 17.6733 36 19.5347C36 21.8119 35.15 23.901 33.45 25.802C31.75 27.703 29.82 29.6139 27.66 31.5347L25.62 33.3762C25.4 33.5941 25.145 33.7525 24.855 33.8515C24.565 33.9505 24.28 34 24 34ZM22.86 17.8713C22.28 17.0594 21.66 16.4406 21 16.0149C20.34 15.5891 19.54 15.3762 18.6 15.3762C17.4 15.3762 16.4 15.7723 15.6 16.5644C14.8 17.3564 14.4 18.3465 14.4 19.5347C14.4 20.5644 14.77 21.6584 15.51 22.8168C16.25 23.9752 17.135 25.099 18.165 26.1881C19.195 27.2772 20.255 28.297 21.345 29.2475C22.435 30.198 23.32 30.9802 24 31.5941C24.68 30.9802 25.565 30.198 26.655 29.2475C27.745 28.297 28.805 27.2772 29.835 26.1881C30.865 25.099 31.75 23.9752 32.49 22.8168C33.23 21.6584 33.6 20.5644 33.6 19.5347C33.6 18.3465 33.2 17.3564 32.4 16.5644C31.6 15.7723 30.6 15.3762 29.4 15.3762C28.46 15.3762 27.66 15.5891 27 16.0149C26.34 16.4406 25.72 17.0594 25.14 17.8713C25 18.0693 24.83 18.2178 24.63 18.3168C24.43 18.4158 24.22 18.4653 24 18.4653C23.78 18.4653 23.57 18.4158 23.37 18.3168C23.17 18.2178 23 18.0693 22.86 17.8713Z" fill="black"/>
</svg>
