<svg width="48" height="48" viewBox="0 0 48 48" fill="none" xmlns="http://www.w3.org/2000/svg">
<path d="M14.6667 36C13.9333 36 13.3056 35.7389 12.7833 35.2167C12.2611 34.6944 12 34.0667 12 33.3333V14.6667C12 13.9333 12.2611 13.3056 12.7833 12.7833C13.3056 12.2611 13.9333 12 14.6667 12H33.3333C34.0667 12 34.6944 12.2611 35.2167 12.7833C35.7389 13.3056 36 13.9333 36 14.6667V33.3333C36 34.0667 35.7389 34.6944 35.2167 35.2167C34.6944 35.7389 34.0667 36 33.3333 36H14.6667ZM14.6667 33.3333H22.6667V14.6667H14.6667V33.3333ZM25.3333 33.3333H33.3333V24H25.3333V33.3333ZM25.3333 21.3333H33.3333V14.6667H25.3333V21.3333Z" fill="black"/>
</svg>
