<svg width="48" height="48" viewBox="0 0 48 48" fill="none" xmlns="http://www.w3.org/2000/svg">
<path d="M15.4444 36C14.7722 36 14.1968 35.765 13.7181 35.295C13.2394 34.825 13 34.26 13 33.6V16.8C13 16.14 13.2394 15.575 13.7181 15.105C14.1968 14.635 14.7722 14.4 15.4444 14.4H16.6667V13.2C16.6667 12.86 16.7838 12.575 17.0181 12.345C17.2523 12.115 17.5426 12 17.8889 12C18.2352 12 18.5255 12.115 18.7597 12.345C18.994 12.575 19.1111 12.86 19.1111 13.2V14.4H28.8889V13.2C28.8889 12.86 29.006 12.575 29.2403 12.345C29.4745 12.115 29.7648 12 30.1111 12C30.4574 12 30.7477 12.115 30.9819 12.345C31.2162 12.575 31.3333 12.86 31.3333 13.2V14.4H32.5556C33.2278 14.4 33.8032 14.635 34.2819 15.105C34.7606 15.575 35 16.14 35 16.8V33.6C35 34.26 34.7606 34.825 34.2819 35.295C33.8032 35.765 33.2278 36 32.5556 36H15.4444ZM15.4444 33.6H32.5556V21.6H15.4444V33.6ZM19.1111 26.4C18.7648 26.4 18.4745 26.285 18.2403 26.055C18.006 25.825 17.8889 25.54 17.8889 25.2C17.8889 24.86 18.006 24.575 18.2403 24.345C18.4745 24.115 18.7648 24 19.1111 24H28.8889C29.2352 24 29.5255 24.115 29.7597 24.345C29.994 24.575 30.1111 24.86 30.1111 25.2C30.1111 25.54 29.994 25.825 29.7597 26.055C29.5255 26.285 29.2352 26.4 28.8889 26.4H19.1111ZM19.1111 31.2C18.7648 31.2 18.4745 31.085 18.2403 30.855C18.006 30.625 17.8889 30.34 17.8889 30C17.8889 29.66 18.006 29.375 18.2403 29.145C18.4745 28.915 18.7648 28.8 19.1111 28.8H25.2222C25.5685 28.8 25.8588 28.915 26.0931 29.145C26.3273 29.375 26.4444 29.66 26.4444 30C26.4444 30.34 26.3273 30.625 26.0931 30.855C25.8588 31.085 25.5685 31.2 25.2222 31.2H19.1111Z" fill="black"/>
</svg>
