<svg width="48" height="48" viewBox="0 0 48 48" fill="none" xmlns="http://www.w3.org/2000/svg">
<path d="M14.6667 36C13.9333 36 13.3056 35.7389 12.7833 35.2167C12.2611 34.6944 12 34.0667 12 33.3333V14.6667C12 13.9333 12.2611 13.3056 12.7833 12.7833C13.3056 12.2611 13.9333 12 14.6667 12H20C20.7333 12 21.3611 12.2611 21.8833 12.7833C22.4056 13.3056 22.6667 13.9333 22.6667 14.6667V33.3333C22.6667 34.0667 22.4056 34.6944 21.8833 35.2167C21.3611 35.7389 20.7333 36 20 36H14.6667ZM28 36C27.2667 36 26.6389 35.7389 26.1167 35.2167C25.5944 34.6944 25.3333 34.0667 25.3333 33.3333V26.6667C25.3333 25.9333 25.5944 25.3056 26.1167 24.7833C26.6389 24.2611 27.2667 24 28 24H33.3333C34.0667 24 34.6944 24.2611 35.2167 24.7833C35.7389 25.3056 36 25.9333 36 26.6667V33.3333C36 34.0667 35.7389 34.6944 35.2167 35.2167C34.6944 35.7389 34.0667 36 33.3333 36H28ZM28 21.3333C27.2667 21.3333 26.6389 21.0722 26.1167 20.55C25.5944 20.0278 25.3333 19.4 25.3333 18.6667V14.6667C25.3333 13.9333 25.5944 13.3056 26.1167 12.7833C26.6389 12.2611 27.2667 12 28 12H33.3333C34.0667 12 34.6944 12.2611 35.2167 12.7833C35.7389 13.3056 36 13.9333 36 14.6667V18.6667C36 19.4 35.7389 20.0278 35.2167 20.55C34.6944 21.0722 34.0667 21.3333 33.3333 21.3333H28Z" fill="black"/>
</svg>
