<svg width="48" height="48" viewBox="0 0 48 48" fill="none" xmlns="http://www.w3.org/2000/svg">
<path d="M15.8008 29.1097L20.1533 24.8784C20.3985 24.64 20.6845 24.5258 21.0115 24.5358C21.3384 24.5457 21.6245 24.6698 21.8697 24.9082C22.0945 25.1466 22.2069 25.4247 22.2069 25.7426C22.2069 26.0604 22.0945 26.3385 21.8697 26.5769L16.6897 31.6424C16.4444 31.8808 16.1584 32 15.8314 32C15.5045 32 15.2184 31.8808 14.9732 31.6424L12.3372 29.0799C12.1124 28.8613 12 28.5832 12 28.2455C12 27.9078 12.1124 27.6297 12.3372 27.4112C12.5619 27.1927 12.848 27.0834 13.1954 27.0834C13.5428 27.0834 13.8289 27.1927 14.0536 27.4112L15.8008 29.1097ZM15.8008 19.5745L20.1533 15.3433C20.3985 15.1049 20.6845 14.9907 21.0115 15.0006C21.3384 15.0105 21.6245 15.1347 21.8697 15.3731C22.0945 15.6114 22.2069 15.8896 22.2069 16.2074C22.2069 16.5252 22.0945 16.8033 21.8697 17.0417L16.6897 22.1073C16.4444 22.3457 16.1584 22.4648 15.8314 22.4648C15.5045 22.4648 15.2184 22.3457 14.9732 22.1073L12.3372 19.5447C12.1124 19.3262 12 19.0481 12 18.7104C12 18.3727 12.1124 18.0946 12.3372 17.876C12.5619 17.6575 12.848 17.5483 13.1954 17.5483C13.5428 17.5483 13.8289 17.6575 14.0536 17.876L15.8008 19.5745ZM26.1916 30.093C25.8442 30.093 25.553 29.9787 25.318 29.7503C25.083 29.5219 24.9655 29.2388 24.9655 28.9011C24.9655 28.5634 25.083 28.2803 25.318 28.0518C25.553 27.8234 25.8442 27.7092 26.1916 27.7092H34.7739C35.1213 27.7092 35.4125 27.8234 35.6475 28.0518C35.8825 28.2803 36 28.5634 36 28.9011C36 29.2388 35.8825 29.5219 35.6475 29.7503C35.4125 29.9787 35.1213 30.093 34.7739 30.093H26.1916ZM26.1916 20.5578C25.8442 20.5578 25.553 20.4436 25.318 20.2151C25.083 19.9867 24.9655 19.7036 24.9655 19.3659C24.9655 19.0282 25.083 18.7451 25.318 18.5167C25.553 18.2882 25.8442 18.174 26.1916 18.174H34.7739C35.1213 18.174 35.4125 18.2882 35.6475 18.5167C35.8825 18.7451 36 19.0282 36 19.3659C36 19.7036 35.8825 19.9867 35.6475 20.2151C35.4125 20.4436 35.1213 20.5578 34.7739 20.5578H26.1916Z" fill="black"/>
</svg>
