<svg width="48" height="48" viewBox="0 0 48 48" fill="none" xmlns="http://www.w3.org/2000/svg">
<path d="M27.3493 23.9918L17.5024 14.6895C17.1675 14.3731 17.0056 14.0039 17.0167 13.582C17.0279 13.1602 17.201 12.791 17.5359 12.4746C17.8708 12.1582 18.2616 12 18.7081 12C19.1547 12 19.5455 12.1582 19.8804 12.4746L30.1962 22.1883C30.4641 22.4414 30.6651 22.7262 30.799 23.0426C30.933 23.359 31 23.6754 31 23.9918C31 24.3082 30.933 24.6246 30.799 24.9411C30.6651 25.2575 30.4641 25.5422 30.1962 25.7954L19.8804 35.5407C19.5455 35.8571 19.1491 36.01 18.6914 35.9995C18.2337 35.9889 17.8373 35.8255 17.5024 35.5091C17.1675 35.1927 17 34.8235 17 34.4016C17 33.9798 17.1675 33.6106 17.5024 33.2942L27.3493 23.9918Z" fill="black"/>
</svg>
