<svg width="48" height="48" viewBox="0 0 48 48" fill="none" xmlns="http://www.w3.org/2000/svg">
<path d="M24 36C23.175 36 22.4688 35.7063 21.8813 35.1188C21.2937 34.5312 21 33.825 21 33C21 32.175 21.2937 31.4688 21.8813 30.8813C22.4688 30.2938 23.175 30 24 30C24.825 30 25.5312 30.2938 26.1188 30.8813C26.7063 31.4688 27 32.175 27 33C27 33.825 26.7063 34.5312 26.1188 35.1188C25.5312 35.7063 24.825 36 24 36ZM24 27C23.175 27 22.4688 26.7063 21.8813 26.1188C21.2937 25.5313 21 24.825 21 24C21 23.175 21.2937 22.4688 21.8813 21.8813C22.4688 21.2938 23.175 21 24 21C24.825 21 25.5312 21.2938 26.1188 21.8813C26.7063 22.4688 27 23.175 27 24C27 24.825 26.7063 25.5313 26.1188 26.1188C25.5312 26.7063 24.825 27 24 27ZM24 18C23.175 18 22.4688 17.7063 21.8813 17.1188C21.2937 16.5313 21 15.825 21 15C21 14.175 21.2937 13.4688 21.8813 12.8813C22.4688 12.2937 23.175 12 24 12C24.825 12 25.5312 12.2937 26.1188 12.8813C26.7063 13.4688 27 14.175 27 15C27 15.825 26.7063 16.5313 26.1188 17.1188C25.5312 17.7063 24.825 18 24 18Z" fill="black"/>
</svg>
