<svg width="48" height="48" viewBox="0 0 48 48" fill="none" xmlns="http://www.w3.org/2000/svg">
<path d="M26.3088 36H21.6912C21.3834 36 21.1166 35.9 20.8909 35.7C20.6651 35.5 20.5317 35.25 20.4907 34.95L20.1213 32.16C19.8545 32.06 19.6031 31.94 19.3671 31.8C19.1311 31.66 18.9002 31.51 18.6744 31.35L15.9963 32.43C15.709 32.53 15.4216 32.54 15.1343 32.46C14.847 32.38 14.6213 32.21 14.4571 31.95L12.1791 28.08C12.0149 27.82 11.9636 27.54 12.0252 27.24C12.0868 26.94 12.2407 26.7 12.4869 26.52L14.7957 24.81C14.7752 24.67 14.7649 24.535 14.7649 24.405C14.7649 24.275 14.7649 24.14 14.7649 24C14.7649 23.86 14.7649 23.725 14.7649 23.595C14.7649 23.465 14.7752 23.33 14.7957 23.19L12.4869 21.48C12.2407 21.3 12.0868 21.06 12.0252 20.76C11.9636 20.46 12.0149 20.18 12.1791 19.92L14.4571 16.05C14.6007 15.77 14.8214 15.595 15.1189 15.525C15.4165 15.455 15.709 15.47 15.9963 15.57L18.6744 16.65C18.9002 16.49 19.1362 16.34 19.3825 16.2C19.6287 16.06 19.875 15.94 20.1213 15.84L20.4907 13.05C20.5317 12.75 20.6651 12.5 20.8909 12.3C21.1166 12.1 21.3834 12 21.6912 12H26.3088C26.6166 12 26.8834 12.1 27.1091 12.3C27.3349 12.5 27.4683 12.75 27.5093 13.05L27.8787 15.84C28.1455 15.94 28.3969 16.06 28.6329 16.2C28.8689 16.34 29.0998 16.49 29.3256 16.65L32.0037 15.57C32.291 15.47 32.5784 15.46 32.8657 15.54C33.153 15.62 33.3787 15.79 33.5429 16.05L35.8209 19.92C35.9851 20.18 36.0364 20.46 35.9748 20.76C35.9132 21.06 35.7593 21.3 35.5131 21.48L33.2043 23.19C33.2248 23.33 33.2351 23.465 33.2351 23.595C33.2351 23.725 33.2351 23.86 33.2351 24C33.2351 24.14 33.2351 24.275 33.2351 24.405C33.2351 24.535 33.2146 24.67 33.1735 24.81L35.4823 26.52C35.7285 26.7 35.8825 26.94 35.944 27.24C36.0056 27.54 35.9543 27.82 35.7901 28.08L33.5121 31.92C33.3479 32.18 33.1171 32.355 32.8195 32.445C32.5219 32.535 32.2295 32.53 31.9422 32.43L29.3256 31.35C29.0998 31.51 28.8638 31.66 28.6175 31.8C28.3713 31.94 28.125 32.06 27.8787 32.16L27.5093 34.95C27.4683 35.25 27.3349 35.5 27.1091 35.7C26.8834 35.9 26.6166 36 26.3088 36ZM24.0616 28.2C25.2519 28.2 26.2677 27.79 27.1091 26.97C27.9506 26.15 28.3713 25.16 28.3713 24C28.3713 22.84 27.9506 21.85 27.1091 21.03C26.2677 20.21 25.2519 19.8 24.0616 19.8C22.8507 19.8 21.8298 20.21 20.9986 21.03C20.1674 21.85 19.7519 22.84 19.7519 24C19.7519 25.16 20.1674 26.15 20.9986 26.97C21.8298 27.79 22.8507 28.2 24.0616 28.2Z" fill="black"/>
</svg>
