<svg width="48" height="48" viewBox="0 0 48 48" fill="none" xmlns="http://www.w3.org/2000/svg">
<path d="M24.0082 27.3493L33.3105 17.5024C33.6269 17.1675 33.9961 17.0056 34.418 17.0167C34.8398 17.0279 35.209 17.201 35.5254 17.5359C35.8418 17.8708 36 18.2616 36 18.7081C36 19.1547 35.8418 19.5455 35.5254 19.8804L25.8117 30.1962C25.5586 30.4641 25.2738 30.6651 24.9574 30.799C24.641 30.933 24.3246 31 24.0082 31C23.6918 31 23.3754 30.933 23.0589 30.799C22.7425 30.6651 22.4578 30.4641 22.2046 30.1962L12.4593 19.8804C12.1429 19.5455 11.99 19.1491 12.0005 18.6914C12.0111 18.2337 12.1745 17.8373 12.4909 17.5024C12.8073 17.1675 13.1765 17 13.5984 17C14.0202 17 14.3894 17.1675 14.7058 17.5024L24.0082 27.3493Z" fill="black"/>
</svg>
