<svg width="48" height="48" viewBox="0 0 48 48" fill="none" xmlns="http://www.w3.org/2000/svg">
<path d="M24.0022 28.6222C25.3371 28.6222 26.4711 28.1726 27.4041 27.2735C28.3372 26.3743 28.8037 25.2824 28.8037 23.9979C28.8037 22.7134 28.3365 21.6222 27.402 20.7245C26.4675 19.8267 25.3328 19.3778 23.9978 19.3778C22.6629 19.3778 21.5289 19.8274 20.5959 20.7265C19.6628 21.6257 19.1963 22.7176 19.1963 24.0021C19.1963 25.2866 19.6635 26.3778 20.598 27.2755C21.5325 28.1733 22.6672 28.6222 24.0022 28.6222ZM23.9956 26.9511C23.1425 26.9511 22.4188 26.6638 21.8245 26.0891C21.2302 25.5145 20.933 24.8167 20.933 23.9958C20.933 23.1749 21.2316 22.4785 21.8288 21.9067C22.426 21.3348 23.1512 21.0489 24.0044 21.0489C24.8575 21.0489 25.5812 21.3362 26.1755 21.9109C26.7698 22.4855 27.067 23.1833 27.067 24.0042C27.067 24.8251 26.7684 25.5215 26.1712 26.0933C25.574 26.6652 24.8488 26.9511 23.9956 26.9511ZM24 32C21.4442 32 19.1132 31.3378 17.0069 30.0133C14.9007 28.6889 13.285 26.927 12.1597 24.7275C12.1025 24.6395 12.0616 24.5308 12.0369 24.4014C12.0123 24.2719 12 24.1381 12 24C12 23.8619 12.0123 23.7281 12.0369 23.5986C12.0616 23.4692 12.1025 23.3605 12.1597 23.2725C13.285 21.0731 14.9007 19.3111 17.0069 17.9867C19.1132 16.6622 21.4442 16 24 16C26.5558 16 28.8868 16.6622 30.9931 17.9867C33.0993 19.3111 34.715 21.0731 35.8403 23.2725C35.8975 23.3605 35.9384 23.4692 35.9631 23.5986C35.9877 23.7281 36 23.8619 36 24C36 24.1381 35.9877 24.2719 35.9631 24.4014C35.9384 24.5308 35.8975 24.6395 35.8403 24.7275C34.715 26.927 33.0993 28.6889 30.9931 30.0133C28.8868 31.3378 26.5558 32 24 32Z" fill="black"/>
</svg>
