<svg width="48" height="48" viewBox="0 0 48 48" fill="none" xmlns="http://www.w3.org/2000/svg">
<path d="M20.6507 24.0082L30.4976 33.3105C30.8325 33.6269 30.9944 33.9961 30.9833 34.418C30.9721 34.8398 30.799 35.209 30.4641 35.5254C30.1292 35.8418 29.7384 36 29.2919 36C28.8453 36 28.4545 35.8418 28.1196 35.5254L17.8038 25.8117C17.5359 25.5586 17.3349 25.2738 17.201 24.9574C17.067 24.641 17 24.3246 17 24.0082C17 23.6918 17.067 23.3754 17.201 23.0589C17.3349 22.7425 17.5359 22.4578 17.8038 22.2046L28.1196 12.4593C28.4545 12.1429 28.8509 11.99 29.3086 12.0005C29.7663 12.0111 30.1627 12.1745 30.4976 12.4909C30.8325 12.8073 31 13.1765 31 13.5984C31 14.0202 30.8325 14.3894 30.4976 14.7058L20.6507 24.0082Z" fill="black"/>
</svg>
