<svg width="48" height="48" viewBox="0 0 48 48" fill="none" xmlns="http://www.w3.org/2000/svg">
<path d="M18 27.189H30C30.34 27.189 30.625 27.0757 30.855 26.8491C31.085 26.6224 31.2 26.3416 31.2 26.0066C31.2 25.6716 31.085 25.3908 30.855 25.1641C30.625 24.9375 30.34 24.8242 30 24.8242H18C17.66 24.8242 17.375 24.9375 17.145 25.1641C16.915 25.3908 16.8 25.6716 16.8 26.0066C16.8 26.3416 16.915 26.6224 17.145 26.8491C17.375 27.0757 17.66 27.189 18 27.189ZM18 23.6418H30C30.34 23.6418 30.625 23.5285 30.855 23.3018C31.085 23.0752 31.2 22.7944 31.2 22.4593C31.2 22.1243 31.085 21.8435 30.855 21.6169C30.625 21.3902 30.34 21.2769 30 21.2769H18C17.66 21.2769 17.375 21.3902 17.145 21.6169C16.915 21.8435 16.8 22.1243 16.8 22.4593C16.8 22.7944 16.915 23.0752 17.145 23.3018C17.375 23.5285 17.66 23.6418 18 23.6418ZM18 20.0945H30C30.34 20.0945 30.625 19.9812 30.855 19.7546C31.085 19.5279 31.2 19.2471 31.2 18.9121C31.2 18.5771 31.085 18.2963 30.855 18.0696C30.625 17.843 30.34 17.7297 30 17.7297H18C17.66 17.7297 17.375 17.843 17.145 18.0696C16.915 18.2963 16.8 18.5771 16.8 18.9121C16.8 19.2471 16.915 19.5279 17.145 19.7546C17.375 19.9812 17.66 20.0945 18 20.0945ZM14.4 31.9187C13.74 31.9187 13.175 31.6871 12.705 31.224C12.235 30.7609 12 30.2042 12 29.5539V15.3648C12 14.7145 12.235 14.1578 12.705 13.6947C13.175 13.2316 13.74 13 14.4 13H33.6C34.26 13 34.825 13.2316 35.295 13.6947C35.765 14.1578 36 14.7145 36 15.3648V33.781C36 34.3131 35.755 34.6826 35.265 34.8895C34.775 35.0964 34.34 35.0127 33.96 34.6383L31.2 31.9187H14.4ZM14.4 29.5539H33.6V15.3648H14.4V29.5539Z" fill="black"/>
</svg>
