<svg width="48" height="48" viewBox="0 0 48 48" fill="none" xmlns="http://www.w3.org/2000/svg">
<path d="M15.75 33.2571H19.875V25.0286H28.125V33.2571H32.25V20.9143L24 14.7429L15.75 20.9143V33.2571ZM15.75 36C14.9938 36 14.3464 35.7314 13.8078 35.1943C13.2693 34.6571 13 34.0114 13 33.2571V20.9143C13 20.48 13.0974 20.0686 13.2922 19.68C13.487 19.2914 13.7563 18.9714 14.1 18.72L22.35 12.5486C22.6021 12.3657 22.8656 12.2286 23.1406 12.1371C23.4156 12.0457 23.7021 12 24 12C24.2979 12 24.5844 12.0457 24.8594 12.1371C25.1344 12.2286 25.3979 12.3657 25.65 12.5486L33.9 18.72C34.2437 18.9714 34.513 19.2914 34.7078 19.68C34.9026 20.0686 35 20.48 35 20.9143V33.2571C35 34.0114 34.7307 34.6571 34.1922 35.1943C33.6536 35.7314 33.0063 36 32.25 36H25.375V27.7714H22.625V36H15.75Z" fill="black"/>
</svg>
