<svg width="48" height="48" viewBox="0 0 48 48" fill="none" xmlns="http://www.w3.org/2000/svg">
<path d="M24 35C23.72 35 23.435 34.9505 23.145 34.8515C22.855 34.7525 22.6 34.5941 22.38 34.3762L20.31 32.505C18.19 30.5842 16.275 28.6782 14.565 26.7871C12.855 24.896 12 22.8119 12 20.5347C12 18.6733 12.63 17.1188 13.89 15.8713C15.15 14.6238 16.72 14 18.6 14C19.66 14 20.66 14.2228 21.6 14.6683C22.54 15.1139 23.34 15.7228 24 16.495C24.66 15.7228 25.46 15.1139 26.4 14.6683C27.34 14.2228 28.34 14 29.4 14C31.28 14 32.85 14.6238 34.11 15.8713C35.37 17.1188 36 18.6733 36 20.5347C36 22.8119 35.15 24.901 33.45 26.802C31.75 28.703 29.82 30.6139 27.66 32.5347L25.62 34.3762C25.4 34.5941 25.145 34.7525 24.855 34.8515C24.565 34.9505 24.28 35 24 35Z" fill="black"/>
</svg>
